<svg width="549" height="433" viewBox="0 0 549 433" fill="none" xmlns="http://www.w3.org/2000/svg">
<path d="M291.193 423.05C405.277 423.05 497.761 330.566 497.761 216.482C497.761 102.397 405.277 9.91368 291.193 9.91368C177.108 9.91368 84.6247 102.397 84.6247 216.482C84.6247 330.566 177.108 423.05 291.193 423.05Z" fill="#1541AA" fill-opacity="0.12"/>
<path d="M181.195 222.451C214.552 189.094 214.552 135.011 181.195 101.654C147.838 68.2968 93.7556 68.2968 60.3984 101.654C27.0413 135.011 27.0413 189.094 60.3984 222.451C93.7556 255.808 147.838 255.808 181.195 222.451Z" stroke="#FFC655" stroke-width="2.26388" stroke-linecap="round" stroke-linejoin="round"/>
<path d="M446.767 406.387C502.124 406.387 547 361.511 547 306.154C547 250.797 502.124 205.921 446.767 205.921C391.409 205.921 346.533 250.797 346.533 306.154C346.533 361.511 391.409 406.387 446.767 406.387Z" stroke="#FFC655" stroke-width="2.26388" stroke-linecap="round" stroke-linejoin="round"/>
<path d="M429.289 96.7336V328.34C429.289 336.32 422.815 342.795 414.823 342.795H161.37C153.379 342.795 146.904 336.32 146.904 328.34V96.7336C146.904 88.7421 153.379 82.2674 161.37 82.2674H414.823C422.815 82.2674 429.289 88.7421 429.289 96.7336Z" fill="#10265B"/>
<path d="M146.904 102.971V333.762C146.904 338.754 150.956 342.806 155.948 342.806H420.279C425.26 342.806 429.301 338.765 429.301 333.785V102.971H146.904Z" fill="#395EB5"/>
<path d="M167.154 93.915C167.154 95.4318 165.921 96.6543 164.415 96.6543C162.91 96.6543 161.676 95.4205 161.676 93.915C161.676 92.4096 162.91 91.1758 164.415 91.1758C165.921 91.1758 167.154 92.4096 167.154 93.915Z" fill="#FFC655"/>
<path d="M184.236 93.915C184.236 95.4318 183.002 96.6543 181.496 96.6543C179.991 96.6543 178.757 95.4205 178.757 93.915C178.757 92.4096 179.991 91.1758 181.496 91.1758C183.002 91.1758 184.236 92.4096 184.236 93.915Z" fill="#FFC655"/>
<path d="M201.316 93.915C201.316 95.4318 200.083 96.6543 198.577 96.6543C197.072 96.6543 195.838 95.4205 195.838 93.915C195.838 92.4096 197.072 91.1758 198.577 91.1758C200.083 91.1758 201.316 92.4096 201.316 93.915Z" fill="#FFC655"/>
<path d="M218.398 93.915C218.398 95.4318 217.164 96.6543 215.658 96.6543C214.153 96.6543 212.919 95.4205 212.919 93.915C212.919 92.4096 214.153 91.1758 215.658 91.1758C217.164 91.1758 218.398 92.4096 218.398 93.915Z" fill="#FFC655"/>
<path d="M411.812 93.915L414.393 91.4021C414.563 91.2437 414.574 90.9607 414.427 90.7796C414.28 90.5985 414.02 90.5758 413.861 90.7456L411.212 93.3264L408.564 90.7456C408.394 90.5871 408.145 90.5985 407.998 90.7796C407.85 90.9607 407.862 91.2437 408.032 91.4021L410.612 93.915L408.032 96.4279C407.862 96.5864 407.85 96.8694 407.998 97.0505C408.077 97.1524 408.19 97.1977 408.303 97.1977C408.394 97.1977 408.496 97.1637 408.575 97.0845L411.224 94.5036L413.872 97.0845C413.952 97.1637 414.042 97.1977 414.144 97.1977C414.257 97.1977 414.37 97.1524 414.45 97.0505C414.597 96.8694 414.586 96.5864 414.416 96.4279L411.835 93.915H411.812Z" fill="#FFC655"/>
<g style="mix-blend-mode:multiply">
<path d="M190.71 49.7241H122.794C116.173 49.7241 110.806 55.0909 110.806 61.7113V125.711C110.806 132.332 116.173 137.699 122.794 137.699H190.71C197.331 137.699 202.697 132.332 202.697 125.711V61.7113C202.697 55.0909 197.331 49.7241 190.71 49.7241Z" fill="#EAEAEA"/>
</g>
<g style="mix-blend-mode:multiply">
<path d="M499.64 164.786H417.834C411.214 164.786 405.847 170.153 405.847 176.773V254.073C405.847 260.694 411.214 266.061 417.834 266.061H499.64C506.26 266.061 511.627 260.694 511.627 254.073V176.773C511.627 170.153 506.26 164.786 499.64 164.786Z" fill="#EAEAEA"/>
</g>
<g style="mix-blend-mode:multiply">
<path d="M435.515 279.463H353.71C347.089 279.463 341.723 284.83 341.723 291.45V368.75C341.723 375.371 347.089 380.738 353.71 380.738H435.515C442.136 380.738 447.502 375.371 447.502 368.75V291.45C447.502 284.83 442.136 279.463 435.515 279.463Z" fill="#EAEAEA"/>
</g>
<g style="mix-blend-mode:multiply">
<path d="M223.672 297.778H141.867C135.247 297.778 129.88 303.144 129.88 309.765V387.065C129.88 393.686 135.247 399.052 141.867 399.052H223.672C230.293 399.052 235.66 393.686 235.66 387.065V309.765C235.66 303.144 230.293 297.778 223.672 297.778Z" fill="#EAEAEA"/>
</g>
<g style="mix-blend-mode:multiply">
<path d="M148.749 184.731H72.5808C65.9605 184.731 60.5936 190.098 60.5936 196.718V268.619C60.5936 275.239 65.9605 280.606 72.5808 280.606H148.749C155.37 280.606 160.736 275.239 160.736 268.619V196.718C160.736 190.098 155.37 184.731 148.749 184.731Z" fill="#EAEAEA"/>
</g>
<g style="mix-blend-mode:multiply">
<path d="M435.142 17.1015H353.336C346.716 17.1015 341.349 22.4684 341.349 29.0888V106.389C341.349 113.009 346.716 118.376 353.336 118.376H435.142C441.762 118.376 447.129 113.009 447.129 106.389V29.0888C447.129 22.4684 441.762 17.1015 435.142 17.1015Z" fill="#EAEAEA"/>
</g>
<path d="M512.781 108.438H499.787C498.938 105.857 497.885 103.378 496.606 101.035L505.548 91.6172C508.831 88.1534 508.695 82.6862 505.231 79.3922L497.545 72.1025C494.082 68.8199 488.614 68.9557 485.321 72.4195L476.378 81.8372C474.669 81.0222 472.892 80.3091 471.058 79.7205V66.7258C471.058 61.949 467.187 58.0778 462.41 58.0778H451.815C447.038 58.0778 443.167 61.949 443.167 66.7258V79.7205C441.345 80.3204 439.567 81.0222 437.847 81.8372L428.905 72.4195C425.622 68.9557 420.143 68.8086 416.68 72.1025L408.994 79.3922C405.53 82.6748 405.383 88.1534 408.677 91.6172L417.619 101.035C416.34 103.378 415.287 105.857 414.438 108.438H401.444C396.667 108.438 392.796 112.309 392.796 117.086V127.681C392.796 132.458 396.667 136.329 401.444 136.329H414.438C415.287 138.91 416.34 141.389 417.619 143.732L408.677 153.15C405.394 156.613 405.53 162.081 408.994 165.374L416.68 172.664C420.143 175.947 425.611 175.811 428.905 172.347L437.847 162.929C439.556 163.744 441.333 164.458 443.167 165.046V178.041C443.167 182.818 447.038 186.689 451.815 186.689H462.41C467.187 186.689 471.058 182.818 471.058 178.041V165.046C472.881 164.446 474.658 163.744 476.378 162.929L485.321 172.347C488.603 175.811 494.082 175.958 497.545 172.664L505.231 165.374C508.695 162.092 508.842 156.613 505.548 153.15L496.606 143.732C497.885 141.389 498.938 138.91 499.787 136.329H512.781C517.558 136.329 521.429 132.458 521.429 127.681V117.086C521.429 112.309 517.558 108.438 512.781 108.438ZM457.135 151.169C441.265 151.169 428.35 138.253 428.35 122.383C428.35 106.514 441.265 93.5981 457.135 93.5981C473.005 93.5981 485.92 106.514 485.92 122.383C485.92 138.253 473.005 151.169 457.135 151.169Z" stroke="#FFC655" stroke-width="2.26122" stroke-miterlimit="10"/>
<path d="M180.534 294.88H167.539C166.69 292.299 165.638 289.82 164.359 287.477L173.301 278.059C176.584 274.595 176.448 269.128 172.984 265.834L165.298 258.545C161.834 255.262 156.367 255.398 153.073 258.861L144.131 268.279C142.422 267.464 140.644 266.751 138.811 266.163V253.168C138.811 248.391 134.939 244.52 130.163 244.52H119.568C114.791 244.52 110.92 248.391 110.92 253.168V266.163C109.097 266.762 107.32 267.464 105.6 268.279L96.6572 258.861C93.3746 255.398 87.896 255.251 84.4322 258.545L76.7464 265.834C73.2826 269.117 73.1355 274.595 76.4294 278.059L85.3717 287.477C84.0927 289.82 83.04 292.299 82.191 294.88H69.1963C64.4195 294.88 60.5483 298.751 60.5483 303.528V314.123C60.5483 318.9 64.4195 322.771 69.1963 322.771H82.191C83.04 325.352 84.0927 327.831 85.3717 330.174L76.4294 339.592C73.1468 343.055 73.2826 348.523 76.7464 351.817L84.4322 359.106C87.896 362.389 93.3633 362.253 96.6572 358.789L105.6 349.372C107.309 350.187 109.086 350.9 110.92 351.488V364.483C110.92 369.26 114.791 373.131 119.568 373.131H130.163C134.939 373.131 138.811 369.26 138.811 364.483V351.488C140.633 350.888 142.41 350.187 144.131 349.372L153.073 358.789C156.356 362.253 161.834 362.4 165.298 359.106L172.984 351.817C176.448 348.534 176.595 343.055 173.301 339.592L164.359 330.174C165.638 327.831 166.69 325.352 167.539 322.771H180.534C185.311 322.771 189.182 318.9 189.182 314.123V303.528C189.182 298.751 185.311 294.88 180.534 294.88ZM124.888 337.611C109.018 337.611 96.1026 324.695 96.1026 308.825C96.1026 292.956 109.018 280.04 124.888 280.04C140.758 280.04 153.673 292.956 153.673 308.825C153.673 324.695 140.758 337.611 124.888 337.611Z" fill="#10265B"/>
<path d="M507.733 157.032H425.928C419.307 157.032 413.94 162.399 413.94 169.019V246.32C413.94 252.94 419.307 258.307 425.928 258.307H507.733C514.353 258.307 519.72 252.94 519.72 246.32V169.019C519.72 162.399 514.353 157.032 507.733 157.032Z" fill="#D42190"/>
<path d="M474.284 192.824L469.428 192.145C469.247 191.137 468.975 190.153 468.624 189.213L472.45 186.157C473.854 185.036 474.092 182.987 472.971 181.573L470.481 178.448C469.36 177.045 467.311 176.807 465.896 177.928L462.07 180.984C461.471 180.588 460.848 180.237 460.191 179.92L460.871 175.064C461.12 173.275 459.875 171.634 458.097 171.385L454.147 170.83C452.358 170.581 450.717 171.827 450.468 173.604L449.789 178.46C449.076 178.584 448.374 178.754 447.695 178.969L444.842 174.985C443.801 173.524 441.763 173.185 440.292 174.226L437.043 176.547C435.583 177.599 435.243 179.626 436.285 181.097L439.137 185.082C438.537 185.897 438.017 186.757 437.564 187.685L432.708 187.006C430.919 186.757 429.278 188.002 429.029 189.779L428.474 193.73C428.225 195.518 429.471 197.159 431.248 197.408L436.104 198.088C436.285 199.095 436.557 200.08 436.907 201.019L433.081 204.076C431.678 205.196 431.44 207.245 432.561 208.66L435.051 211.784C436.172 213.188 438.22 213.425 439.635 212.305L443.461 209.249C444.061 209.645 444.684 209.996 445.34 210.313L444.661 215.169C444.412 216.957 445.657 218.598 447.434 218.847L451.385 219.402C453.173 219.651 454.815 218.406 455.064 216.629L455.743 211.773C456.456 211.648 457.158 211.478 457.837 211.263L460.689 215.248C461.742 216.708 463.768 217.048 465.24 216.006L468.489 213.686C469.949 212.633 470.288 210.607 469.247 209.135L466.394 205.151C466.994 204.336 467.515 203.476 467.968 202.547L472.824 203.227C474.612 203.476 476.254 202.23 476.503 200.453L477.057 196.503C477.306 194.714 476.061 193.073 474.284 192.824ZM451.272 205.887C445.34 205.06 441.197 199.559 442.024 193.639C442.85 187.708 448.351 183.565 454.271 184.391C460.203 185.217 464.346 190.719 463.519 196.639C462.693 202.559 457.192 206.713 451.272 205.887Z" fill="white"/>
<path d="M502.979 223.432L499.13 222.9C498.983 222.107 498.779 221.326 498.496 220.579L501.53 218.157C502.651 217.263 502.832 215.644 501.937 214.523L499.968 212.044C499.074 210.924 497.455 210.743 496.334 211.637L493.301 214.059C492.825 213.742 492.327 213.459 491.818 213.21L492.35 209.362C492.542 207.947 491.558 206.645 490.154 206.441L487.018 206C485.604 205.807 484.302 206.792 484.098 208.207L483.566 212.056C483 212.158 482.445 212.293 481.902 212.463L479.649 209.305C478.823 208.139 477.205 207.879 476.05 208.705L473.48 210.55C472.315 211.377 472.054 212.995 472.881 214.15L475.133 217.308C474.658 217.953 474.239 218.644 473.888 219.368L470.039 218.836C468.624 218.644 467.323 219.628 467.119 221.043L466.677 224.179C466.485 225.594 467.47 226.895 468.885 227.099L472.733 227.631C472.881 228.424 473.084 229.205 473.367 229.952L470.334 232.374C469.213 233.268 469.032 234.887 469.926 236.008L471.896 238.487C472.79 239.607 474.409 239.788 475.529 238.894L478.563 236.472C479.038 236.789 479.536 237.072 480.046 237.321L479.514 241.169C479.321 242.584 480.306 243.886 481.721 244.09L484.856 244.531C486.271 244.724 487.573 243.739 487.777 242.324L488.309 238.475C488.875 238.373 489.429 238.238 489.973 238.068L492.225 241.226C493.052 242.392 494.67 242.652 495.825 241.826L498.394 239.981C499.56 239.154 499.821 237.536 498.994 236.381L496.742 233.223C497.217 232.578 497.636 231.887 497.987 231.163L501.836 231.695C503.25 231.887 504.552 230.903 504.756 229.488L505.197 226.352C505.39 224.937 504.405 223.635 502.99 223.432H502.979ZM484.743 233.778C480.046 233.121 476.752 228.763 477.408 224.066C478.065 219.368 482.423 216.074 487.12 216.731C491.818 217.387 495.112 221.745 494.455 226.443C493.799 231.14 489.441 234.434 484.743 233.778Z" fill="white"/>
<path d="M444.899 289.413H363.094C356.473 289.413 351.106 294.779 351.106 301.4V378.7C351.106 385.321 356.473 390.687 363.094 390.687H444.899C451.519 390.687 456.886 385.321 456.886 378.7V301.4C456.886 294.779 451.519 289.413 444.899 289.413Z" fill="#10265B"/>
<path d="M412.741 327.897C413.507 322.923 410.097 318.269 405.123 317.503C400.149 316.737 395.496 320.147 394.729 325.121C393.963 330.095 397.373 334.748 402.347 335.515C407.321 336.281 411.974 332.87 412.741 327.897Z" fill="#395EB5"/>
<path d="M411.473 334.464C409.469 336.411 406.741 337.611 403.73 337.611C400.719 337.611 397.991 336.411 395.988 334.464C391.686 336.977 388.789 341.516 388.789 346.711V354.76H418.661V346.711C418.661 341.516 415.774 336.977 411.461 334.464H411.473Z" fill="#395EB5"/>
<path d="M440.145 342.578C444.618 340.271 446.374 334.776 444.067 330.303C441.761 325.83 436.265 324.074 431.792 326.381C427.319 328.687 425.563 334.183 427.87 338.656C430.176 343.128 435.672 344.884 440.145 342.578Z" fill="#395EB5"/>
<path d="M443.71 342.41C441.707 344.357 438.979 345.557 435.968 345.557C432.957 345.557 430.229 344.357 428.225 342.41C423.924 344.923 421.026 349.462 421.026 354.658V362.706H450.898V354.658C450.898 349.462 448.012 344.923 443.699 342.41H443.71Z" fill="#395EB5"/>
<path d="M380.926 336.56C382.079 331.661 379.042 326.755 374.143 325.603C369.245 324.45 364.339 327.487 363.186 332.386C362.034 337.285 365.071 342.19 369.969 343.343C374.868 344.495 379.774 341.458 380.926 336.56Z" fill="#395EB5"/>
<path d="M379.767 342.41C377.763 344.357 375.036 345.557 372.025 345.557C369.014 345.557 366.286 344.357 364.282 342.41C359.981 344.923 357.083 349.462 357.083 354.658V362.706H386.955V354.658C386.955 349.462 384.068 344.923 379.756 342.41H379.767Z" fill="#395EB5"/>
<path d="M445.137 10.0722H363.331C356.711 10.0722 351.344 15.439 351.344 22.0594V99.3597C351.344 105.98 356.711 111.347 363.331 111.347H445.137C451.757 111.347 457.124 105.98 457.124 99.3597V22.0594C457.124 15.439 451.757 10.0722 445.137 10.0722Z" fill="#D42190"/>
<path d="M430.772 39.6724C430.331 39.1064 429.855 38.5631 429.391 38.0198C423.166 31.1489 414.189 26.8362 404.24 26.8362C394.29 26.8362 385.314 31.1489 379.088 38.0198C378.612 38.5631 378.16 39.1064 377.718 39.6724C373.1 45.4453 370.361 52.769 370.361 60.7152C370.361 68.6614 373.349 76.5963 378.307 82.4824C378.76 83.0371 379.246 83.5804 379.767 84.1011C385.936 90.5758 394.641 94.5942 404.251 94.5942C413.861 94.5942 422.566 90.5645 428.735 84.1011C429.244 83.5917 429.731 83.0484 430.195 82.4824C435.164 76.5963 438.153 69.001 438.153 60.7152C438.153 52.4294 435.413 45.4453 430.795 39.6724H430.772ZM428.373 81.2939C427.897 81.8485 427.399 82.3919 426.89 82.9126C422.803 87.1007 417.574 90.157 411.71 91.5493C409.65 92.0587 407.511 92.3643 405.315 92.4209C404.953 92.4548 404.602 92.4548 404.24 92.4548C403.877 92.4548 403.526 92.4548 403.164 92.4209C400.968 92.3643 398.84 92.0586 396.78 91.5606C390.905 90.1457 385.687 87.0894 381.578 82.9012C381.069 82.3919 380.582 81.8485 380.107 81.2712C375.568 75.9851 372.76 69.2048 372.523 61.7792C372.489 61.417 372.489 61.0661 372.489 60.7039C372.489 60.3417 372.489 59.9908 372.523 59.6285C372.749 52.5539 375.307 46.0452 379.473 40.8723C379.914 40.3176 380.39 39.763 380.888 39.231C385.076 34.6806 390.577 31.3413 396.769 29.8472C398.829 29.3491 400.957 29.0435 403.153 28.9869C403.515 28.9529 403.866 28.9529 404.228 28.9529C404.59 28.9529 404.941 28.9529 405.304 28.9869C407.5 29.0435 409.65 29.3491 411.699 29.8585C417.902 31.3413 423.381 34.6692 427.58 39.2083C428.067 39.7403 428.542 40.295 428.995 40.8609C433.161 46.0339 435.719 52.5426 435.945 59.6172C435.979 59.9794 435.979 60.3303 435.979 60.6926C435.979 61.0548 435.979 61.4057 435.945 61.7679C435.708 69.1934 432.889 75.9964 428.361 81.2826L428.373 81.2939Z" fill="white"/>
<path d="M421.977 59.6399C421.909 54.4782 421.253 49.6674 420.121 45.3887C419.951 44.6756 419.758 43.9738 419.555 43.3059C417.744 37.4085 415.016 32.7223 411.71 29.8811C409.458 27.9229 406.922 26.8362 404.24 26.8362C401.557 26.8362 399.044 27.9115 396.78 29.8698C393.486 32.711 390.758 37.4085 388.958 43.3059C388.743 43.9738 388.54 44.6756 388.358 45.3887C387.249 49.6788 386.593 54.4895 386.513 59.6399C386.502 60.0021 386.502 60.353 386.502 60.7152C386.502 61.0774 386.502 61.4283 386.513 61.7905C386.604 67.3597 387.351 72.5553 388.641 77.1057C388.845 77.8075 389.06 78.4867 389.287 79.1432C391.086 84.5652 393.69 88.8892 396.78 91.5719C399.033 93.5302 401.568 94.5942 404.24 94.5942C406.911 94.5942 409.458 93.5075 411.71 91.5493C414.812 88.8779 417.404 84.5652 419.226 79.1545C419.442 78.4867 419.657 77.7962 419.86 77.0944C421.151 72.5553 421.898 67.3484 421.988 61.7792C422 61.417 422 61.0661 422 60.7039C422 60.3417 422 59.9908 421.988 59.6285L421.977 59.6399ZM417.812 76.4039C417.608 77.1057 417.393 77.7849 417.178 78.464C414.552 86.331 410.239 91.6851 405.304 92.3643C404.941 92.4209 404.59 92.4548 404.228 92.4548C403.866 92.4548 403.515 92.4209 403.153 92.3643C398.229 91.6964 393.916 86.3197 391.301 78.4527C391.086 77.7849 390.871 77.0944 390.668 76.3926C389.456 72.0686 388.721 67.0767 388.641 61.7792C388.63 61.417 388.63 61.0661 388.63 60.7039C388.63 60.3417 388.63 59.9908 388.641 59.6285C388.709 54.7612 389.343 50.1542 390.385 46.0792C390.566 45.3661 390.769 44.6756 390.973 44.0077C393.543 35.5635 398.014 29.7566 403.153 29.0548C403.515 28.9982 403.866 28.9642 404.228 28.9642C404.59 28.9642 404.941 28.9982 405.304 29.0548C410.465 29.7566 414.925 35.5635 417.506 44.0077C417.721 44.6756 417.902 45.3661 418.072 46.0792C419.125 50.1655 419.759 54.7612 419.826 59.6285C419.838 59.9908 419.838 60.3417 419.838 60.7039C419.838 61.0661 419.838 61.417 419.826 61.7792C419.736 67.0767 419.011 72.0572 417.8 76.4039H417.812Z" fill="white"/>
<path d="M429.38 38.0198C428.791 38.4499 428.191 38.8574 427.58 39.231C425.067 40.8723 422.362 42.2306 419.543 43.3059C418.876 43.5663 418.185 43.804 417.506 44.0191C413.646 45.2755 409.548 45.9886 405.304 46.0792C404.941 46.1132 404.59 46.1132 404.228 46.1132C403.866 46.1132 403.515 46.1132 403.153 46.0792C398.908 45.9886 394.822 45.2755 390.973 44.0191C390.283 43.804 389.615 43.5776 388.947 43.3059C386.106 42.2532 383.401 40.8836 380.888 39.2536C380.276 38.8687 379.676 38.4726 379.077 38.0198C378.601 38.5631 378.148 39.1064 377.707 39.6724C378.295 40.1025 378.873 40.4987 379.473 40.8836C382.246 42.6947 385.212 44.2002 388.347 45.3774C389.015 45.6151 389.705 45.8641 390.385 46.0792C394.426 47.3809 398.716 48.1167 403.153 48.2186C403.515 48.2299 403.866 48.2299 404.228 48.2299C404.59 48.2299 404.941 48.2299 405.304 48.2186C409.741 48.1167 414.031 47.3809 418.072 46.0792C418.762 45.8641 419.442 45.6264 420.109 45.3774C423.256 44.1889 426.222 42.6834 428.995 40.8836C429.595 40.4987 430.184 40.0799 430.761 39.6724C430.319 39.1064 429.844 38.5631 429.38 38.0198Z" fill="white"/>
<path d="M428.373 81.2939C425.701 79.6073 422.849 78.2037 419.849 77.0944C419.181 76.8567 418.491 76.619 417.812 76.4039C413.85 75.1588 409.662 74.4456 405.315 74.3438C404.953 74.3325 404.602 74.3325 404.24 74.3325C403.877 74.3325 403.526 74.3325 403.164 74.3438C398.818 74.4456 394.641 75.1588 390.679 76.3813C389.988 76.6077 389.309 76.834 388.641 77.0831C385.642 78.1811 382.789 79.596 380.118 81.2713C379.507 81.6561 378.907 82.0523 378.307 82.4711C378.76 83.0258 379.246 83.5691 379.767 84.0898C380.367 83.671 380.967 83.2748 381.589 82.9013C384 81.4071 386.593 80.128 389.287 79.1319C389.954 78.8942 390.634 78.6565 391.313 78.4414C395.071 77.2529 399.055 76.585 403.164 76.4945C403.526 76.4605 403.877 76.4605 404.24 76.4605C404.602 76.4605 404.953 76.4605 405.315 76.4945C409.447 76.585 413.408 77.2642 417.189 78.4527C417.879 78.6565 418.559 78.8942 419.226 79.1432C421.92 80.1393 424.479 81.3958 426.901 82.9013C427.535 83.2748 428.135 83.671 428.735 84.0898C429.244 83.5804 429.731 83.0371 430.195 82.4711C429.606 82.0749 429.006 81.6674 428.395 81.2826L428.373 81.2939Z" fill="white"/>
<path d="M437.043 59.6398H371.425V61.7792H437.043V59.6398Z" fill="white"/>
<path d="M405.304 27.9002H403.164V93.5189H405.304V27.9002Z" fill="white"/>
<path d="M68.2568 180.995H141.686C148.308 180.995 153.673 186.372 153.673 192.983V262.257C153.673 268.879 148.296 274.245 141.686 274.245H68.2568C61.6349 274.245 56.2695 268.868 56.2695 262.257V192.983C56.2695 186.361 61.6463 180.995 68.2568 180.995Z" fill="#D42190"/>
<path d="M103.766 188.579H66.3325V195.224H103.766V188.579Z" fill="white"/>
<path d="M126.212 188.579H119.726V195.224H126.212V188.579Z" fill="#FFC655"/>
<path d="M134.917 188.579H128.431V195.224H134.917V188.579Z" fill="#FFC655"/>
<path d="M143.61 188.579H137.124V195.224H143.61V188.579Z" fill="#FFC655"/>
<path d="M184.564 43.5776H116.647C110.027 43.5776 104.66 48.9445 104.66 55.5649V119.565C104.66 126.185 110.027 131.552 116.647 131.552H184.564C191.184 131.552 196.551 126.185 196.551 119.565V55.5649C196.551 48.9445 191.184 43.5776 184.564 43.5776Z" fill="#10265B"/>
<path d="M115.866 114.516V120.086C115.866 121.331 125.273 122.338 136.886 122.338C148.5 122.338 157.907 121.331 157.907 120.086V114.516H115.878H115.866Z" fill="#FFC655"/>
<path d="M157.895 114.516C157.895 115.762 148.489 116.769 136.875 116.769C125.261 116.769 115.855 115.762 115.855 114.516C115.855 113.271 125.261 112.264 136.875 112.264C148.489 112.264 157.895 113.271 157.895 114.516Z" fill="#CCCCCC"/>
<path d="M115.866 109.026V114.596C115.866 115.841 125.273 116.848 136.886 116.848C148.5 116.848 157.907 115.841 157.907 114.596V109.026H115.878H115.866Z" fill="#10265B"/>
<path d="M136.875 111.279C148.484 111.279 157.895 110.271 157.895 109.026C157.895 107.782 148.484 106.774 136.875 106.774C125.266 106.774 115.855 107.782 115.855 109.026C115.855 110.271 125.266 111.279 136.875 111.279Z" fill="#CCCCCC"/>
<path d="M115.866 103.537V109.106C115.866 110.351 125.273 111.358 136.886 111.358C148.5 111.358 157.907 110.351 157.907 109.106V103.537H115.878H115.866Z" fill="#FFC655"/>
<path d="M157.895 103.537C157.895 104.782 148.489 105.789 136.875 105.789C125.261 105.789 115.855 104.782 115.855 103.537C115.855 102.291 125.261 101.284 136.875 101.284C148.489 101.284 157.895 102.291 157.895 103.537Z" fill="#CCCCCC"/>
<path d="M115.866 92.568V98.1372C115.866 99.3823 125.273 100.39 136.886 100.39C148.5 100.39 157.907 99.3823 157.907 98.1372V92.568H115.878H115.866Z" fill="#FFC655"/>
<path d="M157.895 92.568C157.895 93.8132 148.489 94.8206 136.875 94.8206C125.261 94.8206 115.855 93.8132 115.855 92.568C115.855 91.3229 125.261 90.3155 136.875 90.3155C148.489 90.3155 157.895 91.3229 157.895 92.568Z" fill="#CCCCCC"/>
<path d="M115.866 98.0579V103.627C115.866 104.872 125.273 105.88 136.886 105.88C148.5 105.88 157.907 104.872 157.907 103.627V98.0579H115.878H115.866Z" fill="#10265B"/>
<path d="M157.895 98.058C157.895 99.3031 148.489 100.311 136.875 100.311C125.261 100.311 115.855 99.3031 115.855 98.058C115.855 96.8128 125.261 95.8054 136.875 95.8054C148.489 95.8054 157.895 96.8128 157.895 98.058Z" fill="#FFC655"/>
<path d="M115.866 87.0781V92.6473C115.866 93.8924 125.273 94.8998 136.886 94.8998C148.5 94.8998 157.907 93.8924 157.907 92.6473V87.0781H115.878H115.866Z" fill="#10265B"/>
<path d="M157.895 87.0781C157.895 88.3232 148.489 89.3307 136.875 89.3307C125.261 89.3307 115.855 88.3232 115.855 87.0781C115.855 85.833 125.261 84.8255 136.875 84.8255C148.489 84.8255 157.895 85.833 157.895 87.0781Z" fill="#FFC655"/>
<path d="M184.762 79.258C187.477 67.6559 180.272 56.0498 168.67 53.335C157.068 50.6202 145.462 57.8247 142.747 69.4267C140.033 81.0287 147.237 92.6349 158.839 95.3497C170.441 98.0645 182.047 90.86 184.762 79.258Z" fill="#FFC655"/>
<path d="M163.759 93.3264C153.3 93.3264 144.787 84.8142 144.787 74.3551C144.787 63.896 153.3 55.3838 163.759 55.3838C174.218 55.3838 182.73 63.896 182.73 74.3551C182.73 84.8142 174.218 93.3264 163.759 93.3264ZM163.759 57.0024C154.194 57.0024 146.417 64.7789 146.417 74.3438C146.417 83.9087 154.194 91.6851 163.759 91.6851C173.324 91.6851 181.1 83.9087 181.1 74.3438C181.1 64.7789 173.324 57.0024 163.759 57.0024Z" fill="#10265B"/>
<path d="M214.911 305.113H133.106C126.485 305.113 121.118 310.479 121.118 317.1V394.4C121.118 401.021 126.485 406.387 133.106 406.387H214.911C221.531 406.387 226.898 401.021 226.898 394.4V317.1C226.898 310.479 221.531 305.113 214.911 305.113Z" fill="#10265B"/>
<path d="M165.921 354.771H158.812V378.813H165.921V354.771Z" fill="#395EB5"/>
<path d="M199.336 335.324H192.227V378.813H199.336V335.324Z" fill="#395EB5"/>
<path d="M177.093 361.936H169.984V378.802H177.093V361.936Z" fill="#395EB5"/>
<path d="M209.772 341.708H202.663V378.802H209.772V341.708Z" fill="#B19CFE"/>
<path d="M155.586 361.936H149.542V378.802H155.586V361.936Z" fill="#395EB5"/>
<path d="M187.971 343.689H180.862V378.802H187.971V343.689Z" fill="#395EB5"/>
<path d="M143.35 390.189C143.101 390.189 142.908 389.997 142.908 389.748V321.763C142.908 321.514 143.101 321.322 143.35 321.322C143.599 321.322 143.791 321.514 143.791 321.763V389.748C143.791 389.997 143.599 390.189 143.35 390.189Z" fill="#395EB5"/>
<path d="M206.218 385.401H138.233C137.984 385.401 137.792 385.209 137.792 384.96C137.792 384.711 137.984 384.518 138.233 384.518H206.218C206.467 384.518 206.659 384.711 206.659 384.96C206.659 385.209 206.467 385.401 206.218 385.401Z" fill="#395EB5"/>
<path d="M151.172 350.82C151.047 350.82 150.934 350.775 150.843 350.673C150.685 350.492 150.696 350.209 150.877 350.051L162.072 340.101C162.231 339.954 162.48 339.954 162.638 340.09L172.893 348.409L195.43 322.941C195.51 322.85 195.623 322.794 195.747 322.794C195.838 322.794 195.985 322.828 196.064 322.918L207.418 333.615C207.599 333.785 207.599 334.056 207.44 334.237C207.271 334.419 206.999 334.419 206.818 334.26L195.793 323.869L173.278 349.315C173.12 349.496 172.848 349.519 172.667 349.36L162.366 341.018L151.443 350.719C151.364 350.798 151.251 350.832 151.149 350.832L151.172 350.82Z" fill="#395EB5"/>
<path d="M501.19 287.477H482.864C482.445 287.477 482.094 287.137 482.094 286.707C482.094 286.277 482.434 285.938 482.864 285.938H501.19C501.609 285.938 501.96 286.277 501.96 286.707C501.96 287.137 501.62 287.477 501.19 287.477Z" fill="#10265B"/>
<path d="M472.269 287.477H458.595C458.177 287.477 457.826 287.137 457.826 286.707C457.826 286.277 458.165 285.938 458.595 285.938H472.269C472.688 285.938 473.039 286.277 473.039 286.707C473.039 287.137 472.699 287.477 472.269 287.477Z" fill="#10265B"/>
<path d="M476.356 276.384H445.906C445.487 276.384 445.137 276.044 445.137 275.614C445.137 275.184 445.476 274.844 445.906 274.844H476.356C476.774 274.844 477.125 275.184 477.125 275.614C477.125 276.044 476.786 276.384 476.356 276.384Z" fill="#10265B"/>
<path d="M136.468 151.27H115.651C115.232 151.27 114.881 150.931 114.881 150.501C114.881 150.071 115.221 149.731 115.651 149.731H136.468C136.886 149.731 137.237 150.071 137.237 150.501C137.237 150.931 136.898 151.27 136.468 151.27Z" fill="#10265B"/>
<path d="M105.283 151.27H85.0435C84.6247 151.27 84.2738 150.931 84.2738 150.501C84.2738 150.071 84.6134 149.731 85.0435 149.731H105.283C105.701 149.731 106.052 150.071 106.052 150.501C106.052 150.931 105.713 151.27 105.283 151.27Z" fill="#10265B"/>
<path d="M139.603 160.145H104.796C104.377 160.145 104.026 159.805 104.026 159.375C104.026 158.945 104.366 158.605 104.796 158.605H139.603C140.022 158.605 140.373 158.945 140.373 159.375C140.373 159.805 140.033 160.145 139.603 160.145Z" fill="#10265B"/>
<path d="M374.175 414.503H346.443C346.024 414.503 345.673 414.164 345.673 413.734C345.673 413.304 346.013 412.964 346.443 412.964H374.175C374.594 412.964 374.945 413.304 374.945 413.734C374.945 414.164 374.605 414.503 374.175 414.503Z" fill="#10265B"/>
<path d="M392.128 403.524H351.389C350.97 403.524 350.62 403.184 350.62 402.754C350.62 402.324 350.959 401.984 351.389 401.984H392.128C392.547 401.984 392.898 402.324 392.898 402.754C392.898 403.184 392.558 403.524 392.128 403.524Z" fill="#10265B"/>
<path d="M343.998 403.524H328.671C328.252 403.524 327.901 403.184 327.901 402.754C327.901 402.324 328.241 401.984 328.671 401.984H343.998C344.417 401.984 344.767 402.324 344.767 402.754C344.767 403.184 344.428 403.524 343.998 403.524Z" fill="#10265B"/>
<path d="M232.264 36.5143H193.868C193.45 36.5143 193.099 36.1747 193.099 35.7446C193.099 35.3145 193.438 34.9749 193.868 34.9749H232.264C232.683 34.9749 233.033 35.3145 233.033 35.7446C233.033 36.1747 232.694 36.5143 232.264 36.5143Z" fill="#10265B"/>
<path d="M246.707 47.1659H213.598C213.179 47.1659 212.828 46.8263 212.828 46.3961C212.828 45.966 213.168 45.6264 213.598 45.6264H246.707C247.126 45.6264 247.477 45.966 247.477 46.3961C247.477 46.8263 247.137 47.1659 246.707 47.1659Z" fill="#10265B"/>
<g style="mix-blend-mode:multiply">
<path d="M302.286 67.7219H370.757C377.379 67.7219 382.744 73.0986 382.744 79.7092V144.241C382.744 150.863 377.367 156.228 370.757 156.228H302.274C295.653 156.228 290.287 150.852 290.287 144.241V79.7092C290.287 73.0873 295.664 67.7219 302.274 67.7219H302.286Z" fill="#EAEAEA"/>
</g>
<path d="M364.757 62.198H296.275C289.655 62.198 284.288 67.5649 284.288 74.1853V138.729C284.288 145.349 289.655 150.716 296.275 150.716H364.757C371.378 150.716 376.745 145.349 376.745 138.729V74.1853C376.745 67.5649 371.378 62.198 364.757 62.198Z" fill="#10265B"/>
<path d="M351.412 126.311C340.545 138.4 321.936 139.385 309.847 128.518C297.758 117.652 296.773 99.0427 307.64 86.9536C315.258 78.4867 326.656 75.4757 336.98 78.1697L326.883 108.019L358.86 108.438C358.362 114.641 355.894 121.319 351.423 126.3L351.412 126.311Z" fill="#395EB5"/>
<path d="M332.599 104.94L362.471 105.133C362.46 96.9713 359.12 88.6062 352.578 82.7201C349.442 79.9016 345.888 77.8754 342.13 76.619L332.599 104.94Z" fill="#FFC655"/>
<g style="mix-blend-mode:multiply">
<path d="M284.412 330.638H207.769C201.148 330.638 195.781 336.005 195.781 342.625V414.979C195.781 421.599 201.148 426.966 207.769 426.966H284.412C291.033 426.966 296.4 421.599 296.4 414.979V342.625C296.4 336.005 291.033 330.638 284.412 330.638Z" fill="#EAEAEA"/>
</g>
<path d="M290.513 339.082H217.073C210.453 339.082 205.086 344.449 205.086 351.069V420.356C205.086 426.976 210.453 432.343 217.073 432.343H290.513C297.134 432.343 302.501 426.976 302.501 420.356V351.069C302.501 344.449 297.134 339.082 290.513 339.082Z" fill="#D42190"/>
<path d="M279.986 370.29L230.826 362.129C230.826 362.129 230.781 362.129 230.758 362.129C230.713 362.129 230.668 362.129 230.622 362.129C230.464 362.129 230.317 362.14 230.17 362.185C230.147 362.185 230.124 362.185 230.09 362.185L222.925 364.54C222.122 364.811 221.68 365.671 221.94 366.486C222.156 367.132 222.755 367.551 223.401 367.551C223.559 367.551 223.718 367.528 223.887 367.471L229.638 365.581L240.64 395.917C240.64 395.917 240.617 395.917 240.606 395.94C240.187 396.324 236.531 399.822 236.531 403.071C236.531 403.92 237.222 404.61 238.071 404.61H275.062C275.911 404.61 276.602 403.92 276.602 403.071C276.602 402.222 275.911 401.531 275.062 401.531H240.097C240.719 400.343 241.84 399.018 242.7 398.203C242.949 397.977 243.074 397.671 243.13 397.366H277.892C278.696 397.366 279.364 396.743 279.432 395.94L281.265 371.942C281.322 371.15 280.767 370.437 279.986 370.301V370.29ZM277.485 380.975H266.165V371.116L278.085 373.097L277.485 380.975ZM251.677 380.975V368.716L264.637 370.867V380.975H251.677ZM264.637 382.515V394.264H251.677V382.515H264.637ZM250.137 368.456V380.975H238.501L232.92 365.604L250.126 368.467L250.137 368.456ZM239.067 382.515H250.137V394.264H243.323L239.067 382.515ZM266.177 394.264V382.515H277.372L276.477 394.264H266.177Z" fill="white"/>
<path d="M241.059 406.308C238.897 406.308 237.142 408.063 237.142 410.225C237.142 412.387 238.897 414.141 241.059 414.141C243.221 414.141 244.975 412.387 244.975 410.225C244.975 408.063 243.221 406.308 241.059 406.308Z" fill="white"/>
<path d="M271.157 406.308C268.995 406.308 267.241 408.063 267.241 410.225C267.241 412.387 268.995 414.141 271.157 414.141C273.319 414.141 275.074 412.387 275.074 410.225C275.074 408.063 273.319 406.308 271.157 406.308Z" fill="white"/>
<path d="M475.201 405.074L469.27 402.267C469.439 400.909 469.496 399.55 469.417 398.203L475.541 395.838C477.793 394.966 478.914 392.442 478.042 390.189L476.107 385.197C475.235 382.945 472.711 381.824 470.458 382.696L464.334 385.062C463.723 384.315 463.067 383.613 462.365 382.945L465.172 377.014C466.202 374.829 465.274 372.225 463.089 371.195L458.256 368.909C456.071 367.879 453.468 368.807 452.438 370.992L449.63 376.923C448.668 376.798 447.706 376.742 446.744 376.742L444.695 370.505C443.948 368.207 441.48 366.962 439.183 367.72L434.1 369.384C431.802 370.131 430.557 372.599 431.316 374.897L433.364 381.134C432.278 381.926 431.259 382.832 430.308 383.828L424.377 381.021C422.192 379.991 419.589 380.919 418.559 383.103L416.272 387.937C415.242 390.121 416.17 392.725 418.355 393.755L424.286 396.562C424.116 397.921 424.06 399.279 424.139 400.626L418.015 402.992C415.763 403.863 414.642 406.387 415.514 408.64L417.449 413.632C418.321 415.884 420.845 417.005 423.098 416.133L429.222 413.768C429.833 414.515 430.489 415.217 431.191 415.884L428.384 421.816C427.354 424 428.282 426.604 430.467 427.634L435.3 429.92C437.485 430.951 440.088 430.022 441.118 427.838L443.925 421.906C444.888 422.031 445.85 422.087 446.812 422.087L448.861 428.324C449.608 430.622 452.075 431.867 454.373 431.109L459.456 429.445C461.754 428.698 462.999 426.23 462.24 423.933L460.191 417.696C461.278 416.903 462.308 415.998 463.248 415.001L469.179 417.809C471.364 418.839 473.967 417.911 474.997 415.726L477.284 410.893C478.314 408.708 477.386 406.104 475.201 405.074ZM440.541 412.545C433.297 409.115 430.184 400.422 433.625 393.166C437.055 385.922 445.748 382.809 453.004 386.25C460.248 389.68 463.361 398.373 459.92 405.629C456.49 412.873 447.797 415.986 440.541 412.545Z" fill="#10265B"/>
<path d="M118.809 72.3402L113.659 69.6575C113.851 68.4577 113.942 67.2578 113.931 66.0693L119.421 64.1789C121.435 63.4885 122.511 61.2925 121.809 59.2776L120.269 54.8065C119.579 52.7916 117.383 51.7163 115.368 52.4181L109.878 54.3084C109.369 53.6292 108.814 52.984 108.214 52.3728L110.897 47.2225C111.882 45.3321 111.146 43.0003 109.256 42.0155L105.056 39.8309C103.166 38.8461 100.834 39.5819 99.8493 41.4722L97.1666 46.6225C96.3176 46.4867 95.4687 46.3961 94.6197 46.3622L93.0237 40.7817C92.4351 38.7329 90.2957 37.5444 88.2469 38.133L83.6965 39.4347C81.6477 40.0233 80.4591 42.1627 81.0477 44.2115L82.6438 49.792C81.659 50.4598 80.7195 51.2182 79.8592 52.0672L74.7089 49.3845C72.8185 48.3997 70.4867 49.1354 69.5019 51.0258L67.3173 55.2253C66.3325 57.1156 67.0683 59.4474 68.9586 60.4322L74.1089 63.1149C73.9165 64.3148 73.826 65.5146 73.8373 66.7032L68.3474 68.5935C66.3325 69.284 65.2572 71.48 65.959 73.4948L67.4984 77.966C68.1889 79.9808 70.3848 81.0562 72.3997 80.3544L77.8896 78.464C78.399 79.1432 78.9536 79.7884 79.5536 80.3997L76.8709 85.55C75.8861 87.4403 76.6218 89.7721 78.5122 90.7569L82.7117 92.9416C84.602 93.9264 86.9338 93.1906 87.9186 91.3003L90.6013 86.1499C91.4503 86.2857 92.2992 86.3763 93.1482 86.4103L94.7442 91.9907C95.3328 94.0396 97.4722 95.2281 99.521 94.6395L104.071 93.3377C106.12 92.7491 107.309 90.6098 106.72 88.561L105.124 82.9805C106.109 82.3126 107.048 81.5542 107.909 80.7053L113.059 83.388C114.949 84.3728 117.281 83.637 118.266 81.7467L120.451 77.5472C121.435 75.6568 120.7 73.325 118.809 72.3402ZM87.9639 77.7849C81.6816 74.5136 79.2253 66.7371 82.4966 60.4435C85.7679 54.1613 93.5444 51.7049 99.838 54.9763C106.12 58.2476 108.577 66.024 105.305 72.3176C102.034 78.5999 94.2575 81.0562 87.9639 77.7849Z" fill="#395EB5"/>
<path d="M152.813 30.0736L148.398 27.7757C148.568 26.757 148.647 25.7269 148.625 24.6968L153.334 23.0782C155.065 22.4782 155.982 20.5992 155.382 18.8673L154.058 15.0301C153.458 13.2982 151.579 12.3813 149.847 12.9812L145.138 14.5999C144.697 14.0226 144.221 13.468 143.712 12.936L146.01 8.52139C146.859 6.90271 146.225 4.89918 144.606 4.06154L141.007 2.19384C139.388 1.34488 137.384 1.97877 136.547 3.59744L134.249 8.01202C133.525 7.8875 132.8 7.81959 132.064 7.79695L130.695 3.02015C130.185 1.26565 128.363 0.246899 126.597 0.756272L122.703 1.87689C120.949 2.38627 119.93 4.20869 120.439 5.97452L121.809 10.7513C120.96 11.3286 120.168 11.9738 119.421 12.6983L115.006 10.4004C113.387 9.55146 111.384 10.1853 110.546 11.804L108.678 15.4036C107.829 17.0223 108.463 19.0258 110.082 19.8634L114.497 22.1613C114.327 23.18 114.248 24.2101 114.27 25.2402L109.561 26.8588C107.829 27.4588 106.913 29.3378 107.513 31.0697L108.837 34.9069C109.437 36.6388 111.316 37.5557 113.048 36.9557L117.757 35.3371C118.198 35.9144 118.673 36.469 119.183 37.001L116.885 41.4156C116.036 43.0343 116.67 45.0378 118.289 45.8755L121.888 47.7432C123.507 48.5921 125.51 47.9582 126.348 46.3395L128.646 41.925C129.37 42.0495 130.095 42.1174 130.831 42.14L132.2 46.9168C132.71 48.6713 134.532 49.6901 136.298 49.1807L140.192 48.0601C141.946 47.5507 142.965 45.7283 142.456 43.9625L141.086 39.1857C141.935 38.6084 142.727 37.9632 143.474 37.2387L147.889 39.5366C149.508 40.3855 151.511 39.7516 152.349 38.133L154.216 34.5334C155.065 32.9147 154.431 30.9112 152.813 30.0736ZM126.359 34.7485C120.971 31.9413 118.866 25.2741 121.673 19.8861C124.48 14.498 131.147 12.3926 136.536 15.1998C141.924 18.0071 144.029 24.6742 141.222 30.0622C138.415 35.4503 131.747 37.5557 126.359 34.7485Z" fill="#395EB5"/>
<path d="M288.08 53.0406C291.612 53.0406 294.475 50.1773 294.475 46.6452C294.475 43.113 291.612 40.2497 288.08 40.2497C284.548 40.2497 281.684 43.113 281.684 46.6452C281.684 50.1773 284.548 53.0406 288.08 53.0406Z" fill="#09136E"/>
<path d="M303.621 37.9405C303.033 37.9405 302.455 37.5896 302.138 36.9671C299.286 31.2621 293.898 27.7191 288.08 27.7191C282.262 27.7191 276.874 31.2621 274.021 36.9671C273.557 37.884 272.527 38.2122 271.712 37.6915C270.897 37.1708 270.603 36.0162 271.067 35.0881C274.519 28.1832 281.039 23.8932 288.091 23.8932C295.143 23.8932 301.652 28.1832 305.115 35.0881C305.58 36.0049 305.285 37.1708 304.47 37.6915C304.21 37.8613 303.927 37.9405 303.644 37.9405H303.621Z" fill="#09136E"/>
<path d="M264.298 31.7941C264.015 31.7941 263.732 31.7149 263.471 31.5451C262.656 31.0244 262.362 29.8698 262.826 28.9416C267.954 18.6976 277.632 12.3247 288.091 12.3247C298.55 12.3247 308.228 18.6862 313.356 28.9416C313.82 29.8585 313.526 31.0244 312.711 31.5451C311.896 32.0658 310.854 31.7375 310.402 30.8206C305.874 21.7764 297.328 16.1507 288.102 16.1507C278.877 16.1507 270.331 21.7764 265.803 30.8206C265.486 31.4432 264.92 31.7941 264.32 31.7941H264.298Z" fill="#09136E"/>
<path d="M317.782 23.9724C317.193 23.9724 316.616 23.6215 316.299 22.9989C310.571 11.555 299.761 4.43509 288.08 4.43509C276.398 4.43509 265.588 11.5437 259.86 22.9989C259.396 23.9158 258.366 24.2441 257.551 23.7234C256.736 23.2027 256.442 22.0481 256.906 21.1199C263.234 8.4648 275.176 0.609131 288.08 0.609131C300.984 0.609131 312.926 8.4648 319.253 21.1199C319.718 22.0368 319.423 23.2027 318.608 23.7234C318.348 23.8932 318.065 23.9724 317.782 23.9724Z" fill="#09136E"/>
<path d="M202.184 229.14L202.198 213.693L233.188 213.72L233.199 201.705L202.208 201.678L202.221 187.184L237.311 187.215L237.322 174.819L186.88 174.775L186.821 241.523L238.504 241.568L238.514 229.172L202.184 229.14ZM309.915 241.63L294.963 220.162C303.643 216.451 308.703 209.113 308.712 199.101C308.725 184.13 297.577 174.871 279.745 174.856L250.853 174.83L250.795 241.579L266.242 241.592L266.258 222.998L279.703 223.01L280.466 223.01L293.323 241.616L309.915 241.63ZM293.074 199.087C293.068 206.334 288.296 210.717 278.856 210.708L266.269 210.697L266.289 187.431L278.876 187.442C288.316 187.45 293.08 191.745 293.074 199.087ZM349.865 174.917L320.972 174.892L320.914 241.64L336.361 241.653L336.377 223.25L349.822 223.262C367.654 223.277 378.818 214.038 378.831 199.162C378.844 184.192 367.696 174.932 349.865 174.917ZM348.975 210.674L336.388 210.663L336.409 187.492L348.995 187.503C358.436 187.511 363.2 191.806 363.193 199.149C363.187 206.396 358.415 210.682 348.975 210.674Z" fill="white"/>
<path d="M91.0058 220.057L71.1228 227.597L71.118 233.026L90.9879 240.601L90.9925 235.382L77.0917 230.317L91.0013 225.235L91.0058 220.057ZM92.1343 249.121L97.9386 249.126L111.753 209.803L105.949 209.798L92.1343 249.121ZM112.479 220.076L112.474 225.253L126.375 230.36L112.465 235.4L112.461 240.62L132.344 233.079L132.349 227.651L112.479 220.076Z" fill="white"/>
<path d="M171.57 77.4158C171.573 73.6492 168.315 72.6579 165.35 71.9608L165.354 67.4194C166.69 67.5809 168.079 68.0362 169.44 68.8121L170.779 65.5275C169.31 64.5912 167.361 64.0552 165.357 63.8932L165.36 60.9814L162.689 60.9791L162.686 63.9443C158.465 64.4215 156.406 66.8506 156.403 69.6823C156.4 73.5024 159.712 74.4937 162.676 75.2175L162.672 79.6787C160.749 79.49 158.826 78.7671 157.491 77.7775L156.019 81.0353C157.488 82.1853 160.025 83.0156 162.669 83.1782L162.667 86.09L165.338 86.0924L165.341 83.1004C169.535 82.5965 171.568 80.194 171.57 77.4158ZM160.704 69.4723C160.705 68.5908 161.267 67.8166 162.683 67.4972L162.68 71.2906C161.505 70.9156 160.704 70.4073 160.704 69.4723ZM165.344 79.5742L165.347 75.8877C166.495 76.2894 167.27 76.7976 167.269 77.7326C167.268 78.5875 166.68 79.2815 165.344 79.5742Z" fill="#10265B"/>
</svg>
